<mxfile host="app.diagrams.net" agent="Mozilla/5.0 (Macintosh; Intel Mac OS X 10.15; rv:132.0) Gecko/20100101 Firefox/132.0" version="24.8.4">
  <diagram name="Page-1" id="WSgnyMKLDNSppckkr1Me">
    <mxGraphModel>
      <root>
        <mxCell id="0" />
        <mxCell id="1" parent="0" />
        <mxCell id="2" value="References" style="whiteSpace=wrap;strokeWidth=2;verticalAlign=top;" vertex="1" parent="1">
          <mxGeometry x="33" y="8" width="619" height="125" as="geometry" />
        </mxCell>
        <mxCell id="3" value="Reference 1" style="whiteSpace=wrap;strokeWidth=2;" vertex="1" parent="2">
          <mxGeometry x="43" y="46" width="150" height="50" as="geometry" />
        </mxCell>
        <mxCell id="4" value="Reference 2" style="whiteSpace=wrap;strokeWidth=2;" vertex="1" parent="2">
          <mxGeometry x="243" y="46" width="150" height="50" as="geometry" />
        </mxCell>
        <mxCell id="5" value="Reference 3" style="whiteSpace=wrap;strokeWidth=2;" vertex="1" parent="2">
          <mxGeometry x="442" y="46" width="150" height="50" as="geometry" />
        </mxCell>
        <mxCell id="6" value="Conclusion" style="whiteSpace=wrap;strokeWidth=2;" vertex="1" parent="1">
          <mxGeometry x="2074" y="508" width="191" height="120" as="geometry" />
        </mxCell>
        <mxCell id="7" value="Discussion" style="whiteSpace=wrap;strokeWidth=2;" vertex="1" parent="1">
          <mxGeometry x="1837" y="508" width="186" height="120" as="geometry" />
        </mxCell>
        <mxCell id="8" value="Results" style="whiteSpace=wrap;strokeWidth=2;" vertex="1" parent="1">
          <mxGeometry x="1623" y="508" width="164" height="120" as="geometry" />
        </mxCell>
        <mxCell id="9" value="Methods" style="whiteSpace=wrap;strokeWidth=2;" vertex="1" parent="1">
          <mxGeometry x="1400" y="508" width="173" height="120" as="geometry" />
        </mxCell>
        <mxCell id="10" value="Background" style="whiteSpace=wrap;strokeWidth=2;" vertex="1" parent="1">
          <mxGeometry x="1153" y="508" width="197" height="120" as="geometry" />
        </mxCell>
        <mxCell id="11" value="Introduction" style="whiteSpace=wrap;strokeWidth=2;verticalAlign=top;" vertex="1" parent="1">
          <mxGeometry x="231" y="183" width="222" height="125" as="geometry" />
        </mxCell>
        <mxCell id="12" value="Introduction" style="whiteSpace=wrap;strokeWidth=2;" vertex="1" parent="11">
          <mxGeometry x="43" y="46" width="152" height="50" as="geometry" />
        </mxCell>
        <mxCell id="13" value="Abstract" style="whiteSpace=wrap;strokeWidth=2;" vertex="1" parent="1">
          <mxGeometry x="727" y="508" width="174" height="120" as="geometry" />
        </mxCell>
        <mxCell id="14" value="Authors" style="whiteSpace=wrap;strokeWidth=2;verticalAlign=top;" vertex="1" parent="1">
          <mxGeometry x="157" y="358" width="371" height="125" as="geometry" />
        </mxCell>
        <mxCell id="15" value="Author 1" style="whiteSpace=wrap;strokeWidth=2;" vertex="1" parent="14">
          <mxGeometry x="43" y="46" width="125" height="50" as="geometry" />
        </mxCell>
        <mxCell id="16" value="Author 2" style="whiteSpace=wrap;strokeWidth=2;" vertex="1" parent="14">
          <mxGeometry x="218" y="46" width="125" height="50" as="geometry" />
        </mxCell>
        <mxCell id="17" value="Title" style="whiteSpace=wrap;strokeWidth=2;" vertex="1" parent="1">
          <mxGeometry x="8" y="518" width="669" height="210" as="geometry" />
        </mxCell>
        <mxCell id="18" value="Title" style="whiteSpace=wrap;strokeWidth=2;" vertex="1" parent="1">
          <mxGeometry x="294" y="603" width="97" height="50" as="geometry" />
        </mxCell>
        <mxCell id="19" value="Abstract" style="whiteSpace=wrap;strokeWidth=2;" vertex="1" parent="1">
          <mxGeometry x="752" y="543" width="124" height="50" as="geometry" />
        </mxCell>
        <mxCell id="20" value="Background" style="whiteSpace=wrap;strokeWidth=2;" vertex="1" parent="1">
          <mxGeometry x="1178" y="543" width="147" height="50" as="geometry" />
        </mxCell>
        <mxCell id="21" value="Methods" style="whiteSpace=wrap;strokeWidth=2;" vertex="1" parent="1">
          <mxGeometry x="1425" y="543" width="123" height="50" as="geometry" />
        </mxCell>
        <mxCell id="22" value="Results" style="whiteSpace=wrap;strokeWidth=2;" vertex="1" parent="1">
          <mxGeometry x="1648" y="543" width="114" height="50" as="geometry" />
        </mxCell>
        <mxCell id="23" value="Discussion" style="whiteSpace=wrap;strokeWidth=2;" vertex="1" parent="1">
          <mxGeometry x="1862" y="543" width="136" height="50" as="geometry" />
        </mxCell>
        <mxCell id="24" value="Conclusion" style="whiteSpace=wrap;strokeWidth=2;" vertex="1" parent="1">
          <mxGeometry x="2099" y="543" width="141" height="50" as="geometry" />
        </mxCell>
        <mxCell id="25" value="authors" style="whiteSpace=wrap;strokeWidth=2;" vertex="1" parent="1">
          <mxGeometry x="755" y="663" width="118" height="50" as="geometry" />
        </mxCell>
        <mxCell id="26" value="introduction" style="whiteSpace=wrap;strokeWidth=2;" vertex="1" parent="1">
          <mxGeometry x="951" y="543" width="152" height="50" as="geometry" />
        </mxCell>
        <mxCell id="27" value="references" style="whiteSpace=wrap;strokeWidth=2;" vertex="1" parent="1">
          <mxGeometry x="2314" y="543" width="140" height="50" as="geometry" />
        </mxCell>
        <mxCell id="28" value="" style="curved=1;startArrow=none;endArrow=block;exitX=1;exitY=0.33;entryX=0;entryY=0.5;" edge="1" parent="1" source="18" target="19">
          <mxGeometry relative="1" as="geometry">
            <Array as="points">
              <mxPoint x="677" y="568" />
            </Array>
          </mxGeometry>
        </mxCell>
        <mxCell id="29" value="" style="curved=1;startArrow=none;endArrow=block;exitX=1;exitY=0.67;entryX=0;entryY=0.5;" edge="1" parent="1" source="18" target="25">
          <mxGeometry relative="1" as="geometry">
            <Array as="points">
              <mxPoint x="677" y="688" />
            </Array>
          </mxGeometry>
        </mxCell>
        <mxCell id="30" value="" style="curved=1;startArrow=none;endArrow=block;exitX=1;exitY=0.5;entryX=0;entryY=0.5;" edge="1" parent="1" source="19" target="26">
          <mxGeometry relative="1" as="geometry">
            <Array as="points" />
          </mxGeometry>
        </mxCell>
        <mxCell id="31" value="" style="curved=1;startArrow=none;endArrow=block;exitX=1;exitY=0.5;entryX=0;entryY=0.5;" edge="1" parent="1" source="26" target="20">
          <mxGeometry relative="1" as="geometry">
            <Array as="points" />
          </mxGeometry>
        </mxCell>
        <mxCell id="32" value="" style="curved=1;startArrow=none;endArrow=block;exitX=1;exitY=0.5;entryX=0;entryY=0.5;" edge="1" parent="1" source="20" target="21">
          <mxGeometry relative="1" as="geometry">
            <Array as="points" />
          </mxGeometry>
        </mxCell>
        <mxCell id="33" value="" style="curved=1;startArrow=none;endArrow=block;exitX=1;exitY=0.5;entryX=0;entryY=0.5;" edge="1" parent="1" source="21" target="22">
          <mxGeometry relative="1" as="geometry">
            <Array as="points" />
          </mxGeometry>
        </mxCell>
        <mxCell id="34" value="" style="curved=1;startArrow=none;endArrow=block;exitX=1;exitY=0.5;entryX=0;entryY=0.5;" edge="1" parent="1" source="22" target="23">
          <mxGeometry relative="1" as="geometry">
            <Array as="points" />
          </mxGeometry>
        </mxCell>
        <mxCell id="35" value="" style="curved=1;startArrow=none;endArrow=block;exitX=1;exitY=0.5;entryX=0;entryY=0.5;" edge="1" parent="1" source="23" target="24">
          <mxGeometry relative="1" as="geometry">
            <Array as="points" />
          </mxGeometry>
        </mxCell>
        <mxCell id="36" value="" style="curved=1;startArrow=none;endArrow=block;exitX=0.99;exitY=0.5;entryX=0;entryY=0.5;" edge="1" parent="1" source="24" target="27">
          <mxGeometry relative="1" as="geometry">
            <Array as="points" />
          </mxGeometry>
        </mxCell>
      </root>
    </mxGraphModel>
  </diagram>
</mxfile>
